# Blender 4.2.1 LTS
# www.blender.org
mtllib testbuilding2.mtl
o testbuilding2
v -14.994845 0.823004 76.512650
v -14.994845 5.361359 76.512650
v -14.994845 0.823004 73.751297
v -14.994845 5.361359 73.751297
v -14.523341 0.823004 76.512650
v -14.523341 5.361359 76.512650
v -14.523341 0.823004 73.751297
v -14.523341 5.361359 73.751297
v -14.523341 0.824516 73.944176
v -14.523341 5.196094 73.944176
v -14.523341 5.196094 76.319771
v -14.523341 0.824516 76.319771
v -14.641442 5.196094 73.944176
v -14.641442 0.824516 73.944176
v -14.641442 0.824516 76.319771
v -14.641442 5.196094 76.319771
v -15.128553 9.830662 79.809685
v -15.128553 12.156386 79.809685
v -15.128553 9.830662 79.684097
v -15.128553 12.156386 79.684097
v -15.067699 9.830662 79.809685
v -15.067699 12.156386 79.809685
v -15.067699 9.830662 79.684097
v -15.067699 12.156386 79.684097
v -15.128553 10.914625 79.809685
v -15.128553 11.072424 79.809685
v -15.128553 11.072424 79.684097
v -15.128553 10.914625 79.684097
v -15.067699 11.072424 79.684097
v -15.067699 10.914625 79.684097
v -15.067699 11.072424 79.809685
v -15.067699 10.914625 79.809685
v -15.128553 10.914625 81.266457
v -15.128553 11.072424 81.266457
v -15.128553 11.072424 78.227325
v -15.128553 10.914625 78.227325
v -15.067699 11.072424 78.227325
v -15.067699 10.914625 78.227325
v -15.067699 11.072424 81.266457
v -15.067699 10.914625 81.266457
v -15.128553 9.830662 75.889206
v -15.128553 12.156386 75.889206
v -15.128553 9.830662 75.763618
v -15.128553 12.156386 75.763618
v -15.067699 9.830662 75.889206
v -15.067699 12.156386 75.889206
v -15.067699 9.830662 75.763618
v -15.067699 12.156386 75.763618
v -15.128553 10.914625 75.889206
v -15.128553 11.072424 75.889206
v -15.128553 11.072424 75.763618
v -15.128553 10.914625 75.763618
v -15.067699 11.072424 75.763618
v -15.067699 10.914625 75.763618
v -15.067699 11.072424 75.889206
v -15.067699 10.914625 75.889206
v -15.128553 10.914625 77.345978
v -15.128553 11.072424 77.345978
v -15.128553 11.072424 74.306847
v -15.128553 10.914625 74.306847
v -15.067699 11.072424 74.306847
v -15.067699 10.914625 74.306847
v -15.067699 11.072424 77.345978
v -15.067699 10.914625 77.345978
v -15.128553 6.690934 79.809685
v -15.128553 9.016659 79.809685
v -15.128553 6.690934 79.684097
v -15.128553 9.016659 79.684097
v -15.067699 6.690934 79.809685
v -15.067699 9.016659 79.809685
v -15.067699 6.690934 79.684097
v -15.067699 9.016659 79.684097
v -15.128553 7.774897 79.809685
v -15.128553 7.932696 79.809685
v -15.128553 7.932696 79.684097
v -15.128553 7.774897 79.684097
v -15.067699 7.932696 79.684097
v -15.067699 7.774897 79.684097
v -15.067699 7.932696 79.809685
v -15.067699 7.774897 79.809685
v -15.128553 7.774897 81.266457
v -15.128553 7.932696 81.266457
v -15.128553 7.932696 78.227325
v -15.128553 7.774897 78.227325
v -15.067699 7.932696 78.227325
v -15.067699 7.774897 78.227325
v -15.067699 7.932696 81.266457
v -15.067699 7.774897 81.266457
v -15.128553 6.690934 75.889206
v -15.128553 9.016659 75.889206
v -15.128553 6.690934 75.763618
v -15.128553 9.016659 75.763618
v -15.067699 6.690934 75.889206
v -15.067699 9.016659 75.889206
v -15.067699 6.690934 75.763618
v -15.067699 9.016659 75.763618
v -15.128553 7.774897 75.889206
v -15.128553 7.932696 75.889206
v -15.128553 7.932696 75.763618
v -15.128553 7.774897 75.763618
v -15.067699 7.932696 75.763618
v -15.067699 7.774897 75.763618
v -15.067699 7.932696 75.889206
v -15.067699 7.774897 75.889206
v -15.128553 7.774897 77.345978
v -15.128553 7.932696 77.345978
v -15.128553 7.932696 74.306847
v -15.128553 7.774897 74.306847
v -15.067699 7.932696 74.306847
v -15.067699 7.774897 74.306847
v -15.067699 7.932696 77.345978
v -15.067699 7.774897 77.345978
v -34.353233 0.780894 83.256798
v -34.353233 13.963900 83.256798
v -34.353233 0.780894 72.331802
v -34.353233 13.963900 72.331802
v -14.948744 0.780894 83.256798
v -14.948744 13.963900 83.256798
v -14.948744 0.780894 72.331802
v -14.948744 13.963900 72.331802
v -24.650990 0.780894 72.331802
v -24.650990 20.318468 72.331802
v -24.650990 0.780894 83.256798
v -24.650990 20.318468 83.256798
v -34.353233 0.780894 73.909424
v -34.353233 0.780894 77.794304
v -34.353233 0.780894 81.679184
v -34.353233 13.963900 81.679184
v -34.353233 13.963900 77.794304
v -34.353233 13.963900 73.909424
v -14.948744 0.780894 81.679184
v -14.948744 0.780894 77.794304
v -14.948744 0.780894 73.909424
v -14.948744 13.963900 73.909424
v -14.948744 13.963900 77.794304
v -14.948744 13.963900 81.679184
v -24.650990 20.318468 73.909424
v -24.650990 20.318468 77.794304
v -24.650990 20.318468 81.679184
v -24.650990 0.780894 73.909424
v -24.650990 0.780894 77.794304
v -24.650990 0.780894 81.679184
v -34.353233 6.260427 83.256798
v -34.353233 9.411892 83.256798
v -34.353233 12.563356 83.256798
v -34.353233 12.563356 72.331802
v -34.353233 9.411892 72.331802
v -34.353233 6.260427 72.331802
v -14.948744 12.563356 72.331802
v -14.948744 9.411892 72.331802
v -14.948744 6.260427 72.331802
v -14.948744 12.563356 83.256798
v -14.948744 9.411892 83.256798
v -14.948744 6.260427 83.256798
v -24.650990 12.563356 83.256798
v -24.650990 9.411892 83.256798
v -24.650990 6.260427 83.256798
v -24.650990 12.563356 72.331802
v -24.650990 9.411892 72.331802
v -24.650990 6.260427 72.331802
v -14.948744 12.563356 73.909424
v -14.948744 9.411892 73.909424
v -14.948744 6.260427 73.909424
v -14.948744 12.563356 77.794304
v -14.948744 9.411892 77.794304
v -14.948744 6.260427 77.794304
v -14.948744 12.563356 81.679184
v -14.948744 9.411892 81.679184
v -14.948744 6.260427 81.679184
v -34.353233 12.563356 81.679184
v -34.353233 9.411892 81.679184
v -34.353233 6.260427 81.679184
v -34.353233 12.563356 77.794304
v -34.353233 9.411892 77.794304
v -34.353233 6.260427 77.794304
v -34.353233 12.563356 73.909424
v -34.353233 9.411892 73.909424
v -34.353233 6.260427 73.909424
v -14.998631 6.714411 78.254791
v -14.998631 8.957908 78.254791
v -14.998631 8.957908 81.218697
v -14.998631 6.714411 81.218697
v -14.998631 9.865875 78.254791
v -14.998631 12.109372 78.254791
v -14.998631 12.109372 81.218697
v -14.998631 9.865875 81.218697
v -14.998631 6.714411 74.369911
v -14.998631 8.957908 74.369911
v -14.998631 8.957908 77.333817
v -14.998631 6.714411 77.333817
v -14.998631 9.865875 74.369911
v -14.998631 12.109372 74.369911
v -14.998631 12.109372 77.333817
v -14.998631 9.865875 77.333817
v -14.948744 9.638884 78.024544
v -14.948744 12.336365 78.024544
v -14.948744 12.336365 81.448936
v -14.948744 9.638884 81.448936
v -14.948744 9.638884 74.139664
v -14.948744 12.336365 74.139664
v -14.948744 12.336365 77.564056
v -14.948744 9.638884 77.564056
v -14.948744 6.487419 78.024544
v -14.948744 9.184899 78.024544
v -14.948744 9.184899 81.448936
v -14.948744 6.487419 81.448936
v -14.948744 6.487419 74.139664
v -14.948744 9.184899 74.139664
v -14.948744 9.184899 77.564056
v -14.948744 6.487419 77.564056
v -15.156826 8.957908 78.254791
v -15.156826 6.714411 78.254791
v -15.156826 6.714411 81.218697
v -15.156826 8.957908 81.218697
v -15.156826 12.109372 78.254791
v -15.156826 9.865875 78.254791
v -15.156826 9.865875 81.218697
v -15.156826 12.109372 81.218697
v -15.156826 8.957908 74.369911
v -15.156826 6.714411 74.369911
v -15.156826 6.714411 77.333817
v -15.156826 8.957908 77.333817
v -15.156826 12.109372 74.369911
v -15.156826 9.865875 74.369911
v -15.156826 9.865875 77.333817
v -15.156826 12.109372 77.333817
v -14.998631 12.222869 74.254791
v -14.998631 12.222869 77.448936
v -14.998631 9.752378 77.448936
v -14.998631 9.752378 74.254791
v -14.998631 12.222869 78.139671
v -14.998631 12.222869 81.333817
v -14.998631 9.752378 81.333817
v -14.998631 9.752378 78.139671
v -14.998631 9.071404 78.139671
v -14.998631 9.071404 81.333817
v -14.998631 6.600915 81.333817
v -14.998631 6.600915 78.139671
v -14.998631 9.071404 74.254791
v -14.998631 9.071404 77.448936
v -14.998631 6.600915 77.448936
v -14.998631 6.600915 74.254791
v -34.353233 1.985950 72.331802
v -14.948744 1.985950 72.331802
v -14.948744 1.985950 83.256798
v -24.650990 1.985950 83.256798
v -24.650990 1.985950 72.331802
v -14.948744 1.985950 73.909424
v -14.948744 1.985950 77.794304
v -14.948744 1.985950 81.679184
v -34.353233 1.985950 81.679184
v -34.353233 1.985950 77.794304
v -34.353233 1.985950 73.909424
v -34.353233 1.985950 83.256798
v -34.601406 0.780894 81.778549
v -34.601406 0.780894 83.396523
v -34.601406 1.985950 72.192085
v -34.601406 0.780894 72.192085
v -24.650990 0.780894 72.192085
v -14.700573 1.985950 72.192085
v -14.700573 0.780894 72.192085
v -14.700573 0.780894 73.810051
v -14.700573 1.985950 83.396523
v -14.700573 0.780894 83.396523
v -24.650990 0.780894 83.396523
v -24.650990 1.985950 83.396523
v -24.650990 1.985950 72.192085
v -34.601406 0.780894 73.810051
v -34.601406 0.780894 77.794304
v -14.700573 0.780894 81.778549
v -14.700573 0.780894 77.794304
v -14.700573 1.985950 73.810051
v -14.700573 1.985950 77.794304
v -14.700573 1.985950 81.778549
v -34.601406 1.985950 81.778549
v -34.601406 1.985950 77.794304
v -34.601406 1.985950 73.810051
v -34.601406 1.985950 83.396523
v -34.353233 13.522304 83.256798
v -34.353233 13.522304 72.331802
v -14.948744 13.522304 72.331802
v -14.948744 13.522304 83.256798
v -24.650990 13.522304 83.256798
v -24.650990 13.522304 72.331802
v -14.948744 13.522304 73.909424
v -14.948744 13.522304 77.794304
v -14.948744 13.522304 81.679184
v -34.353233 13.522304 81.679184
v -34.353233 13.522304 77.794304
v -34.353233 13.522304 73.909424
v -14.618037 13.718540 81.679184
v -14.618037 13.718540 83.256798
v -14.618037 13.718540 72.331802
v -14.618037 13.718540 73.909424
v -14.618037 13.718540 77.794304
v -14.755052 13.426098 72.331802
v -14.755052 13.426098 83.256798
v -14.755052 13.426098 73.909424
v -14.755052 13.426098 77.794304
v -14.755052 13.426098 81.679184
vn -1.0000 -0.0000 -0.0000
vn -0.0000 -0.0000 -1.0000
vn -0.0000 -0.0000 1.0000
vn -0.0000 -1.0000 -0.0000
vn -0.0000 1.0000 -0.0000
vn 1.0000 -0.0000 -0.0000
vn 0.5958 0.8031 -0.0000
vn -0.5479 0.8365 -0.0000
vn 0.5479 0.8365 -0.0000
vn -0.4448 -0.8956 -0.0000
vn 0.9155 0.4024 -0.0000
vn 0.9176 -0.0000 -0.3976
vn 0.9155 -0.4024 -0.0000
vn 0.9176 -0.0000 0.3976
vn 0.9055 -0.4243 -0.0000
vt 1.444510 -3.930884
vt 1.444510 -1.492639
vt 2.715701 -1.492639
vt 2.715701 -3.930884
vt 3.630844 -3.930884
vt 3.630844 -1.492639
vt 3.809677 -1.492639
vt 3.809677 -3.930884
vt 3.809677 -1.581428
vt 3.809677 -3.930071
vt 3.764884 -3.930071
vt 3.764884 -1.581428
vt 3.630844 2.715701
vt 3.809677 2.715701
vt 3.809677 1.444510
vt 3.630844 1.444510
vt 2.626911 -1.581428
vt 2.626911 -3.930071
vt 1.533299 -1.581428
vt 1.533299 -3.930071
vt 3.809677 1.533299
vt 3.809677 2.626911
vt 3.764884 2.626911
vt 3.764884 1.533299
vt 0.000000 0.000000
s 0
usemtl White_wall.003
f 1/1/1 2/2/1 4/3/1 3/4/1
f 3/5/2 4/6/2 8/7/2 7/8/2
f 11/9/2 12/10/2 15/11/2 16/12/2
f 5/8/3 6/7/3 2/6/3 1/5/3
f 3/13/4 7/14/4 5/15/4 1/16/4
f 8/14/5 4/13/5 2/16/5 6/15/5
f 7/4/6 8/3/6 10/17/6 9/18/6
f 8/3/6 6/2/6 11/19/6 10/17/6
f 6/2/6 5/1/6 12/20/6 11/19/6
f 5/1/6 7/4/6 9/18/6 12/20/6
f 14/18/6 13/17/6 16/19/6 15/20/6
f 12/21/5 9/22/5 14/23/5 15/24/5
f 10/22/4 11/21/4 16/24/4 13/23/4
f 9/10/3 10/9/3 13/12/3 14/11/3
f 26/25/1 18/25/1 20/25/1 27/25/1
f 27/25/2 20/25/2 24/25/2 29/25/2
f 29/25/6 24/25/6 22/25/6 31/25/6
f 31/25/3 22/25/3 18/25/3 26/25/3
f 19/25/4 23/25/4 21/25/4 17/25/4
f 24/25/5 20/25/5 18/25/5 22/25/5
f 21/25/3 32/25/3 25/25/3 17/25/3
f 26/25/1 25/25/1 33/25/1 34/25/1
f 23/25/6 30/25/6 32/25/6 21/25/6
f 30/25/6 29/25/6 31/25/6 32/25/6
f 19/25/2 28/25/2 30/25/2 23/25/2
f 30/25/4 28/25/4 36/25/4 38/25/4
f 17/25/1 25/25/1 28/25/1 19/25/1
f 25/25/1 26/25/1 27/25/1 28/25/1
f 40/25/3 39/25/3 34/25/3 33/25/3
f 36/25/2 35/25/2 37/25/2 38/25/2
f 25/25/4 32/25/4 40/25/4 33/25/4
f 27/25/5 29/25/5 37/25/5 35/25/5
f 31/25/5 26/25/5 34/25/5 39/25/5
f 32/25/6 31/25/6 39/25/6 40/25/6
f 29/25/6 30/25/6 38/25/6 37/25/6
f 28/25/1 27/25/1 35/25/1 36/25/1
f 50/25/1 42/25/1 44/25/1 51/25/1
f 51/25/2 44/25/2 48/25/2 53/25/2
f 53/25/6 48/25/6 46/25/6 55/25/6
f 55/25/3 46/25/3 42/25/3 50/25/3
f 43/25/4 47/25/4 45/25/4 41/25/4
f 48/25/5 44/25/5 42/25/5 46/25/5
f 45/25/3 56/25/3 49/25/3 41/25/3
f 50/25/1 49/25/1 57/25/1 58/25/1
f 47/25/6 54/25/6 56/25/6 45/25/6
f 54/25/6 53/25/6 55/25/6 56/25/6
f 43/25/2 52/25/2 54/25/2 47/25/2
f 54/25/4 52/25/4 60/25/4 62/25/4
f 41/25/1 49/25/1 52/25/1 43/25/1
f 49/25/1 50/25/1 51/25/1 52/25/1
f 64/25/3 63/25/3 58/25/3 57/25/3
f 60/25/2 59/25/2 61/25/2 62/25/2
f 49/25/4 56/25/4 64/25/4 57/25/4
f 51/25/5 53/25/5 61/25/5 59/25/5
f 55/25/5 50/25/5 58/25/5 63/25/5
f 56/25/6 55/25/6 63/25/6 64/25/6
f 53/25/6 54/25/6 62/25/6 61/25/6
f 52/25/1 51/25/1 59/25/1 60/25/1
f 74/25/1 66/25/1 68/25/1 75/25/1
f 75/25/2 68/25/2 72/25/2 77/25/2
f 77/25/6 72/25/6 70/25/6 79/25/6
f 79/25/3 70/25/3 66/25/3 74/25/3
f 67/25/4 71/25/4 69/25/4 65/25/4
f 72/25/5 68/25/5 66/25/5 70/25/5
f 69/25/3 80/25/3 73/25/3 65/25/3
f 74/25/1 73/25/1 81/25/1 82/25/1
f 71/25/6 78/25/6 80/25/6 69/25/6
f 78/25/6 77/25/6 79/25/6 80/25/6
f 67/25/2 76/25/2 78/25/2 71/25/2
f 78/25/4 76/25/4 84/25/4 86/25/4
f 65/25/1 73/25/1 76/25/1 67/25/1
f 73/25/1 74/25/1 75/25/1 76/25/1
f 88/25/3 87/25/3 82/25/3 81/25/3
f 84/25/2 83/25/2 85/25/2 86/25/2
f 73/25/4 80/25/4 88/25/4 81/25/4
f 75/25/5 77/25/5 85/25/5 83/25/5
f 79/25/5 74/25/5 82/25/5 87/25/5
f 80/25/6 79/25/6 87/25/6 88/25/6
f 77/25/6 78/25/6 86/25/6 85/25/6
f 76/25/1 75/25/1 83/25/1 84/25/1
f 98/25/1 90/25/1 92/25/1 99/25/1
f 99/25/2 92/25/2 96/25/2 101/25/2
f 101/25/6 96/25/6 94/25/6 103/25/6
f 103/25/3 94/25/3 90/25/3 98/25/3
f 91/25/4 95/25/4 93/25/4 89/25/4
f 96/25/5 92/25/5 90/25/5 94/25/5
f 93/25/3 104/25/3 97/25/3 89/25/3
f 98/25/1 97/25/1 105/25/1 106/25/1
f 95/25/6 102/25/6 104/25/6 93/25/6
f 102/25/6 101/25/6 103/25/6 104/25/6
f 91/25/2 100/25/2 102/25/2 95/25/2
f 102/25/4 100/25/4 108/25/4 110/25/4
f 89/25/1 97/25/1 100/25/1 91/25/1
f 97/25/1 98/25/1 99/25/1 100/25/1
f 112/25/3 111/25/3 106/25/3 105/25/3
f 108/25/2 107/25/2 109/25/2 110/25/2
f 97/25/4 104/25/4 112/25/4 105/25/4
f 99/25/5 101/25/5 109/25/5 107/25/5
f 103/25/5 98/25/5 106/25/5 111/25/5
f 104/25/6 103/25/6 111/25/6 112/25/6
f 101/25/6 102/25/6 110/25/6 109/25/6
f 100/25/1 99/25/1 107/25/1 108/25/1
f 290/25/1 130/25/1 116/25/1 280/25/1
f 284/25/2 122/25/2 120/25/2 281/25/2
f 135/25/7 136/25/7 291/25/7 295/25/7
f 283/25/3 124/25/3 114/25/3 279/25/3
f 142/25/4 131/25/4 117/25/4 123/25/4
f 139/25/8 128/25/8 114/25/8 124/25/8
f 136/25/9 139/25/9 124/25/9 118/25/9
f 127/25/4 142/25/4 123/25/4 113/25/4
f 282/25/3 118/25/3 124/25/3 283/25/3
f 280/25/2 116/25/2 122/25/2 284/25/2
f 115/25/4 121/25/4 140/25/4 125/25/4
f 125/25/4 140/25/4 141/25/4 126/25/4
f 126/25/4 141/25/4 142/25/4 127/25/4
f 120/25/9 122/25/9 137/25/9 134/25/9
f 134/25/9 137/25/9 138/25/9 135/25/9
f 135/25/9 138/25/9 139/25/9 136/25/9
f 122/25/8 116/25/8 130/25/8 137/25/8
f 137/25/8 130/25/8 129/25/8 138/25/8
f 138/25/8 129/25/8 128/25/8 139/25/8
f 121/25/4 119/25/4 133/25/4 140/25/4
f 140/25/4 133/25/4 132/25/4 141/25/4
f 141/25/4 132/25/4 131/25/4 142/25/4
f 281/25/2 120/25/2 293/25/2 296/25/2
f 287/25/10 286/25/10 299/25/10 300/25/10
f 134/25/7 135/25/7 295/25/7 294/25/7
f 279/25/1 114/25/1 128/25/1 288/25/1
f 288/25/1 128/25/1 129/25/1 289/25/1
f 289/25/1 129/25/1 130/25/1 290/25/1
f 252/25/1 175/25/1 178/25/1 253/25/1
f 175/25/1 174/25/1 177/25/1 178/25/1
f 174/25/1 173/25/1 176/25/1 177/25/1
f 251/25/1 172/25/1 175/25/1 252/25/1
f 172/25/1 171/25/1 174/25/1 175/25/1
f 171/25/1 170/25/1 173/25/1 174/25/1
f 254/25/1 143/25/1 172/25/1 251/25/1
f 143/25/1 144/25/1 171/25/1 172/25/1
f 144/25/1 145/25/1 170/25/1 171/25/1
f 249/25/6 166/25/6 169/25/6 250/25/6
f 186/25/5 183/25/5 216/25/5 217/25/5
f 187/25/3 188/25/3 219/25/3 220/25/3
f 248/25/6 163/25/6 166/25/6 249/25/6
f 182/25/5 179/25/5 212/25/5 213/25/5
f 183/25/3 184/25/3 215/25/3 216/25/3
f 244/25/6 151/25/6 163/25/6 248/25/6
f 151/25/6 150/25/6 162/25/6 163/25/6
f 150/25/6 149/25/6 161/25/6 162/25/6
f 243/25/2 148/25/2 160/25/2 247/25/2
f 148/25/2 147/25/2 159/25/2 160/25/2
f 147/25/2 146/25/2 158/25/2 159/25/2
f 245/25/3 154/25/3 157/25/3 246/25/3
f 154/25/3 153/25/3 156/25/3 157/25/3
f 153/25/3 152/25/3 155/25/3 156/25/3
f 246/25/3 157/25/3 143/25/3 254/25/3
f 157/25/3 156/25/3 144/25/3 143/25/3
f 156/25/3 155/25/3 145/25/3 144/25/3
f 250/25/6 169/25/6 154/25/6 245/25/6
f 169/25/6 168/25/6 153/25/6 154/25/6
f 168/25/6 167/25/6 152/25/6 153/25/6
f 247/25/2 160/25/2 151/25/2 244/25/2
f 160/25/2 159/25/2 150/25/2 151/25/2
f 159/25/2 158/25/2 149/25/2 150/25/2
f 253/25/1 178/25/1 148/25/1 243/25/1
f 178/25/1 177/25/1 147/25/1 148/25/1
f 177/25/1 176/25/1 146/25/1 147/25/1
f 238/25/6 235/25/6 180/25/6 179/25/6
f 235/25/6 236/25/6 181/25/6 180/25/6
f 236/25/6 237/25/6 182/25/6 181/25/6
f 237/25/6 238/25/6 179/25/6 182/25/6
f 234/25/6 231/25/6 184/25/6 183/25/6
f 231/25/6 232/25/6 185/25/6 184/25/6
f 232/25/6 233/25/6 186/25/6 185/25/6
f 233/25/6 234/25/6 183/25/6 186/25/6
f 242/25/6 239/25/6 188/25/6 187/25/6
f 239/25/6 240/25/6 189/25/6 188/25/6
f 240/25/6 241/25/6 190/25/6 189/25/6
f 241/25/6 242/25/6 187/25/6 190/25/6
f 230/25/6 227/25/6 192/25/6 191/25/6
f 227/25/6 228/25/6 193/25/6 192/25/6
f 228/25/6 229/25/6 194/25/6 193/25/6
f 229/25/6 230/25/6 191/25/6 194/25/6
f 168/25/6 165/25/6 195/25/6 198/25/6
f 167/25/6 168/25/6 198/25/6 197/25/6
f 164/25/6 167/25/6 197/25/6 196/25/6
f 165/25/6 164/25/6 196/25/6 195/25/6
f 165/25/6 162/25/6 199/25/6 202/25/6
f 164/25/6 165/25/6 202/25/6 201/25/6
f 161/25/6 164/25/6 201/25/6 200/25/6
f 162/25/6 161/25/6 200/25/6 199/25/6
f 169/25/6 166/25/6 203/25/6 206/25/6
f 168/25/6 169/25/6 206/25/6 205/25/6
f 165/25/6 168/25/6 205/25/6 204/25/6
f 166/25/6 165/25/6 204/25/6 203/25/6
f 166/25/6 163/25/6 207/25/6 210/25/6
f 165/25/6 166/25/6 210/25/6 209/25/6
f 162/25/6 165/25/6 209/25/6 208/25/6
f 163/25/6 162/25/6 208/25/6 207/25/6
f 212/25/6 211/25/6 214/25/6 213/25/6
f 216/25/6 215/25/6 218/25/6 217/25/6
f 220/25/6 219/25/6 222/25/6 221/25/6
f 224/25/6 223/25/6 226/25/6 225/25/6
f 191/25/3 192/25/3 223/25/3 224/25/3
f 180/25/4 181/25/4 214/25/4 211/25/4
f 190/25/5 187/25/5 220/25/5 221/25/5
f 184/25/4 185/25/4 218/25/4 215/25/4
f 194/25/5 191/25/5 224/25/5 225/25/5
f 181/25/2 182/25/2 213/25/2 214/25/2
f 188/25/4 189/25/4 222/25/4 219/25/4
f 185/25/2 186/25/2 217/25/2 218/25/2
f 192/25/4 193/25/4 226/25/4 223/25/4
f 189/25/2 190/25/2 221/25/2 222/25/2
f 193/25/2 194/25/2 225/25/2 226/25/2
f 179/25/3 180/25/3 211/25/3 212/25/3
f 202/25/11 199/25/11 230/25/11 229/25/11
f 201/25/12 202/25/12 229/25/12 228/25/12
f 200/25/13 201/25/13 228/25/13 227/25/13
f 199/25/14 200/25/14 227/25/14 230/25/14
f 198/25/11 195/25/11 234/25/11 233/25/11
f 197/25/12 198/25/12 233/25/12 232/25/12
f 196/25/13 197/25/13 232/25/13 231/25/13
f 195/25/14 196/25/14 231/25/14 234/25/14
f 206/25/11 203/25/11 238/25/11 237/25/11
f 205/25/12 206/25/12 237/25/12 236/25/12
f 204/25/13 205/25/13 236/25/13 235/25/13
f 203/25/14 204/25/14 235/25/14 238/25/14
f 210/25/11 207/25/11 242/25/11 241/25/11
f 209/25/12 210/25/12 241/25/12 240/25/12
f 208/25/13 209/25/13 240/25/13 239/25/13
f 207/25/14 208/25/14 239/25/14 242/25/14
f 125/25/4 126/25/4 269/25/4 268/25/4
f 132/25/4 133/25/4 262/25/4 271/25/4
f 245/25/5 246/25/5 266/25/5 263/25/5
f 115/25/4 125/25/4 268/25/4 258/25/4
f 252/25/5 253/25/5 277/25/5 276/25/5
f 131/25/4 132/25/4 271/25/4 270/25/4
f 119/25/4 121/25/4 259/25/4 261/25/4
f 246/25/5 254/25/5 278/25/5 266/25/5
f 251/25/5 252/25/5 276/25/5 275/25/5
f 121/25/4 115/25/4 258/25/4 259/25/4
f 117/25/4 131/25/4 270/25/4 264/25/4
f 250/25/5 245/25/5 263/25/5 274/25/5
f 268/25/1 277/25/1 257/25/1 258/25/1
f 259/25/2 267/25/2 260/25/2 261/25/2
f 270/25/6 274/25/6 263/25/6 264/25/6
f 265/25/3 266/25/3 278/25/3 256/25/3
f 264/25/3 263/25/3 266/25/3 265/25/3
f 258/25/2 257/25/2 267/25/2 259/25/2
f 261/25/6 260/25/6 272/25/6 262/25/6
f 262/25/6 272/25/6 273/25/6 271/25/6
f 271/25/6 273/25/6 274/25/6 270/25/6
f 256/25/1 278/25/1 275/25/1 255/25/1
f 255/25/1 275/25/1 276/25/1 269/25/1
f 269/25/1 276/25/1 277/25/1 268/25/1
f 243/25/5 247/25/5 267/25/5 257/25/5
f 113/25/4 123/25/4 265/25/4 256/25/4
f 133/25/4 119/25/4 261/25/4 262/25/4
f 126/25/4 127/25/4 255/25/4 269/25/4
f 127/25/4 113/25/4 256/25/4 255/25/4
f 244/25/5 248/25/5 272/25/5 260/25/5
f 248/25/5 249/25/5 273/25/5 272/25/5
f 253/25/5 243/25/5 257/25/5 277/25/5
f 249/25/5 250/25/5 274/25/5 273/25/5
f 247/25/5 244/25/5 260/25/5 267/25/5
f 123/25/4 117/25/4 264/25/4 265/25/4
f 254/25/5 251/25/5 275/25/5 278/25/5
f 173/25/1 289/25/1 290/25/1 176/25/1
f 170/25/1 288/25/1 289/25/1 173/25/1
f 145/25/1 279/25/1 288/25/1 170/25/1
f 164/25/6 286/25/6 287/25/6 167/25/6
f 161/25/6 285/25/6 286/25/6 164/25/6
f 149/25/6 281/25/6 285/25/6 161/25/6
f 146/25/2 280/25/2 284/25/2 158/25/2
f 152/25/3 282/25/3 283/25/3 155/25/3
f 155/25/3 283/25/3 279/25/3 145/25/3
f 167/25/6 287/25/6 282/25/6 152/25/6
f 158/25/2 284/25/2 281/25/2 149/25/2
f 176/25/1 290/25/1 280/25/1 146/25/1
f 300/25/15 291/25/15 292/25/15 297/25/15
f 296/25/15 293/25/15 294/25/15 298/25/15
f 298/25/15 294/25/15 295/25/15 299/25/15
f 299/25/15 295/25/15 291/25/15 300/25/15
f 286/25/10 285/25/10 298/25/10 299/25/10
f 136/25/7 118/25/7 292/25/7 291/25/7
f 118/25/3 282/25/3 297/25/3 292/25/3
f 285/25/10 281/25/10 296/25/10 298/25/10
f 120/25/7 134/25/7 294/25/7 293/25/7
f 282/25/10 287/25/10 300/25/10 297/25/10
