# Blender 4.2.1 LTS
# www.blender.org
mtllib teststreet.mtl
o road
v -42.890980 0.076905 -0.442513
v -42.890980 0.838150 -0.442513
v 28.228985 0.076905 -0.442509
v 28.228985 0.838150 -0.442509
v -42.890980 0.076905 27.501194
v -42.890980 0.838150 27.501194
v 28.228985 0.076905 27.501198
v 28.228985 0.838150 27.501198
v 28.228981 0.076905 22.512287
v 28.228981 0.076905 7.362135
v 28.228981 0.838150 7.362135
v 28.228981 0.838150 22.512287
v -42.890976 0.076905 7.362132
v -42.890976 0.076905 22.512283
v -42.890976 0.838150 22.512283
v -42.890976 0.838150 7.362132
v -42.890980 -3.139094 27.501194
v 28.228985 -3.139094 27.501198
vn -0.0000 -0.0000 -1.0000
vn 1.0000 -0.0000 -0.0000
vn -0.0000 -0.0000 1.0000
vn -1.0000 -0.0000 -0.0000
vn -0.0000 -1.0000 -0.0000
vn -0.0000 1.0000 -0.0000
vt 0.375000 0.000000
vt 0.625000 0.000000
vt 0.625000 0.250000
vt 0.375000 0.250000
vt 0.375000 0.450365
vt 0.625000 0.450365
vt 0.625000 0.500000
vt 0.375000 0.500000
vt 0.625000 0.750000
vt 0.375000 0.750000
vt 0.375000 0.950365
vt 0.625000 0.950365
vt 0.625000 1.000000
vt 0.375000 1.000000
vt 0.325365 0.500000
vt 0.325365 0.750000
vt 0.825365 0.500000
vt 0.875000 0.500000
vt 0.875000 0.750000
vt 0.825365 0.750000
vt 0.674635 0.500000
vt 0.674635 0.750000
vt 0.625000 0.799635
vt 0.125000 0.500000
vt 0.174635 0.500000
vt 0.174635 0.750000
vt 0.125000 0.750000
vt 0.375000 0.799635
vt 0.625000 0.299635
vt 0.375000 0.299635
s 0
f 1/1/1 2/2/1 4/3/1 3/4/1
f 9/5/2 12/6/2 8/7/2 7/8/2
f 7/8/3 8/7/3 6/9/3 5/10/3
f 13/11/4 16/12/4 2/13/4 1/14/4
f 9/15/5 7/8/5 5/10/5 14/16/5
f 11/17/6 4/18/6 2/19/6 16/20/6
f 8/7/6 12/21/6 15/22/6 6/9/6
f 12/6/1 9/5/1 14/16/1 15/23/1
f 3/24/5 10/25/5 13/26/5 1/27/5
f 10/25/6 13/26/6 14/16/6 9/15/6
f 5/10/4 6/9/4 15/23/4 14/28/4
f 3/4/2 4/3/2 11/29/2 10/30/2
f 10/30/3 11/29/3 16/20/3 13/11/3
f 5/10/3 17/10/3 18/8/3 7/8/3
